<svg xmlns="http://www.w3.org/2000/svg" width="55" height="65" viewBox="0 0 55 65" fill="none"><g><path d="M53.61 30.68L38.17 23.1C39.49 16.58 37.35 9.84 32.52 5.27C28.61 1.58 23.48 -0.279999 18.07 0.0300014C13.31 0.350001 8.84 2.42 5.51 5.84C0.38 11.05 -1.34 18.72 1.08 25.62C2.11 28.55 3.82 31.19 6.08 33.32C8.73 35.87 9.99 39.53 9.47 43.17L9.27 44.69C9.16 45.31 9.57 45.91 10.19 46.03C10.23 46.04 10.26 46.04 10.3 46.05V53.81C10.3 56.29 12.31 58.3 14.79 58.3C14.8 58.3 14.82 58.3 14.83 58.3H23.74C24.82 58.31 25.87 57.93 26.7 57.24L36.89 64.2C37.02 64.29 37.18 64.34 37.34 64.35C37.5 64.35 37.66 64.3 37.79 64.22L48.41 56.99C51.58 54.83 54.07 50.14 54.07 46.3V31.39C54.05 31.09 53.88 30.81 53.61 30.68ZM7.17 32.16C3.43 28.64 1.4 23.68 1.6 18.55C1.93 9.65 9.21 2.21 18.17 1.62C27.93 1.02 36.33 8.44 36.93 18.19C37.03 19.83 36.91 21.47 36.55 23.07L21.07 30.65C20.8 30.79 20.63 31.06 20.64 31.37V44.5H10.9L11.04 43.4C11.63 39.25 10.19 35.07 7.17 32.16ZM11.88 46.1H20.63V46.28C20.64 47.67 20.9 49.05 21.41 50.34H11.88V46.1V46.1ZM14.82 56.71C13.22 56.73 11.91 55.45 11.88 53.85C11.88 53.84 11.88 53.82 11.88 53.81V51.94H22.1C22.9 53.57 24 55.03 25.35 56.24C24.87 56.56 24.3 56.72 23.72 56.72H14.82V56.71ZM52.46 46.28C52.46 49.59 50.23 53.79 47.5 55.65L37.33 62.58L27.16 55.65C25.68 54.64 24.3 52.89 23.35 50.83C22.62 49.26 22.23 47.64 22.23 46.28V31.87L37.35 24.47L52.47 31.9V46.28H52.46Z" fill="#DD6461"></path><path d="M31.14 42.53C30.83 42.22 30.32 42.23 30.02 42.54C29.71 42.85 29.71 43.36 30.03 43.66C30.03 43.66 30.03 43.66 30.04 43.67L34.85 48.36C35.16 48.66 35.65 48.66 35.96 48.36L44.63 39.91C44.95 39.6 44.96 39.1 44.65 38.79C44.34 38.47 43.84 38.46 43.53 38.77C43.53 38.77 43.53 38.77 43.52 38.78L35.41 46.69L31.14 42.53Z" fill="#DD6461"></path></g><defs><clipPath id="clip0"><rect width="54.05" height="64.34" fill="white"></rect></clipPath></defs></svg>